<svg xmlns="http://www.w3.org/2000/svg" xmlns:xlink="http://www.w3.org/1999/xlink" width="1024" zoomAndPan="magnify" viewBox="0 0 768 767.999994" height="1024" preserveAspectRatio="xMidYMid meet" version="1.0"><defs><clipPath id="38b02d96e2"><path d="M 256.953125 246.472656 L 564.453125 246.472656 L 564.453125 553.972656 L 256.953125 553.972656 Z M 256.953125 246.472656 " clip-rule="nonzero"/></clipPath></defs><rect x="-76.8" width="921.6" fill="#ffffff" y="-76.799999" height="921.599993" fill-opacity="1"/><rect x="-76.8" width="921.6" fill="#ffffff" y="-76.799999" height="921.599993" fill-opacity="1"/><g clip-path="url(#38b02d96e2)"><path fill="#132e1e" d="M 459.011719 346.546875 C 445.039062 346.546875 431.789062 350.59375 420.699219 358.246094 C 416.757812 360.96875 413.351562 363.949219 410.476562 367.175781 C 405.644531 362.726562 399.320312 360.234375 392.640625 360.234375 C 378.136719 360.234375 366.328125 372.003906 366.261719 386.492188 C 366.175781 387.851562 365.753906 397.601562 370.441406 409.625 C 374.988281 421.273438 385.398438 437.375 409.195312 447.953125 L 410.550781 448.550781 L 411.902344 447.953125 C 435.703125 437.375 446.117188 421.273438 450.660156 409.625 C 455.351562 397.601562 454.925781 387.847656 454.839844 386.492188 C 454.78125 372.5625 443.863281 361.15625 430.128906 360.292969 C 438.828125 355.648438 448.683594 353.21875 459 353.21875 L 557.480469 353.21875 L 557.480469 446.953125 L 457.425781 446.953125 L 457.425781 547.027344 L 363.695312 547.027344 L 363.695312 446.945312 L 263.621094 446.945312 L 263.621094 353.214844 L 363.695312 353.214844 L 363.695312 253.140625 L 457.425781 253.140625 L 457.425781 338.355469 L 464.09375 338.355469 L 464.09375 246.472656 L 357.027344 246.472656 L 357.027344 346.546875 L 256.953125 346.546875 L 256.953125 453.613281 L 357.027344 453.613281 L 357.027344 553.6875 L 464.09375 553.6875 L 464.09375 453.613281 L 564.167969 453.613281 L 564.167969 346.546875 Z M 410.558594 378.585938 C 413.382812 383.367188 414.90625 388.875 414.90625 394.476562 C 414.90625 394.847656 414.898438 395.214844 414.882812 395.589844 C 414.75 399.449219 411.25 399.648438 410.550781 399.648438 C 409.851562 399.648438 406.355469 399.457031 406.214844 395.589844 C 406.203125 395.222656 406.195312 394.847656 406.195312 394.476562 C 406.195312 391.074219 406.761719 387.71875 407.835938 384.53125 C 407.917969 384.285156 408.011719 384.039062 408.097656 383.800781 C 408.242188 383.390625 408.402344 382.980469 408.5625 382.578125 C 408.625 382.4375 408.675781 382.300781 408.738281 382.160156 C 409.277344 380.933594 409.878906 379.738281 410.558594 378.585938 Z M 448.183594 386.605469 L 448.199219 386.875 C 448.226562 387.234375 450.578125 422.648438 410.5625 441.238281 C 393.972656 433.542969 382.613281 422.195312 376.785156 407.492188 C 372.296875 396.167969 372.921875 386.953125 372.929688 386.875 L 372.941406 386.605469 C 372.941406 375.738281 381.785156 366.894531 392.652344 366.894531 C 397.839844 366.894531 402.734375 368.910156 406.402344 372.484375 C 404.824219 374.871094 403.503906 377.378906 402.441406 379.984375 C 402.363281 380.179688 402.28125 380.363281 402.207031 380.558594 C 402.109375 380.804688 402.015625 381.058594 401.921875 381.3125 C 401.789062 381.679688 401.65625 382.039062 401.535156 382.414062 C 401.457031 382.644531 401.375 382.878906 401.300781 383.113281 C 401.230469 383.347656 401.160156 383.578125 401.089844 383.8125 C 400.996094 384.125 400.894531 384.433594 400.808594 384.753906 L 400.820312 384.757812 C 399.980469 387.914062 399.546875 391.179688 399.546875 394.476562 C 399.546875 394.929688 399.554688 395.375 399.574219 395.820312 C 399.816406 402.710938 405.289062 406.316406 410.570312 406.316406 C 415.851562 406.316406 421.324219 402.710938 421.566406 395.820312 C 421.578125 395.375 421.59375 394.929688 421.59375 394.476562 C 421.59375 386.640625 419.132812 378.964844 414.632812 372.597656 C 414.636719 372.582031 414.652344 372.578125 414.65625 372.5625 C 418.332031 368.9375 423.265625 366.894531 428.492188 366.894531 C 439.34375 366.894531 448.183594 375.738281 448.183594 386.605469 Z M 448.183594 386.605469 " fill-opacity="1" fill-rule="nonzero"/></g></svg>